<?xml version="1.0" encoding="UTF-8" standalone="no"?>
<svg width="20px" height="20px" viewBox="0 0 20 20" version="1.1" xmlns="http://www.w3.org/2000/svg" xmlns:xlink="http://www.w3.org/1999/xlink" xmlns:sketch="http://www.bohemiancoding.com/sketch/ns">
    <!-- Generator: Sketch 3.3.3 (12072) - http://www.bohemiancoding.com/sketch -->
    <title>Artboard 1</title>
    <desc>Created with Sketch.</desc>
    <defs></defs>
    <g id="Page-1" stroke="none" stroke-width="1" fill="none" fill-rule="evenodd" sketch:type="MSPage">
        <g id="Artboard-1" sketch:type="MSArtboardGroup" fill="#000000">
            <path d="M1.07992859,10.4843067 C1.07992852,3.28733134 6.64490332,1.03484368 10.0000002,1.03484368 C11.6317312,1.03484368 13.0034363,1.52884412 14.0859138,2.31725883 C14.7591993,1.52884412 16.2439262,-3.02110958e-09 16.2439262,-3.02110958e-09 L16.8513853,5.91710853 L10.5758831,6.00868463 L12.6919729,3.7590971 C12.6919729,3.7590971 11.6345431,2.88350084 10.0000002,2.88165521 C9.40719044,2.88174314 3.35412402,3.23969793 3.13795619,9.75297696 C3.10890029,10.6284505 3.09537157,10.2365871 3.08484484,10.4418583 C1.84742666,10.4418583 1.68993708,10.5093539 1.07992859,10.4843067 Z" id="Path-1" sketch:type="MSShapeGroup"></path>
            <path d="M2.07992859,19.4843067 C2.07992852,12.2873313 7.65583439,9.83499372 11.0000002,10.0149817 C12.6122428,10.1017551 14.1391308,10.3505259 15.2216084,11.1389406 C15.8948938,10.3505259 17.2439262,9 17.2439262,9 L17.8513853,14.9171085 L11.5758831,15.0086846 L13.6891609,12.7572515 C13.6891609,12.7572515 12.2374184,12.0623462 11.0000002,12.0623462 C9.76258202,12.0623462 4.44482107,12.4223225 4.08484484,19.4418583 C2.84742666,19.4418583 2.68993708,19.5093539 2.07992859,19.4843067 Z" id="Path-1-Copy" sketch:type="MSShapeGroup" transform="translate(9.965657, 14.244940) rotate(-180.000000) translate(-9.965657, -14.244940) "></path>
        </g>
    </g>
</svg>