<?xml version="1.0" encoding="utf-8"?>
<!-- Generator: Adobe Illustrator 23.0.1, SVG Export Plug-In . SVG Version: 6.00 Build 0)  -->
<svg version="1.1" id="Layer_1" xmlns="http://www.w3.org/2000/svg" xmlns:xlink="http://www.w3.org/1999/xlink" x="0px" y="0px"
	 viewBox="0 0 32 32" style="enable-background:new 0 0 32 32;" xml:space="preserve">
<g>
	<rect x="6.7" y="9.9" width="10.7" height="10.7"/>
	<path d="M26.8,3.7c-0.6-0.8-1.7-1-5.7-1l-0.3,0v3l0.3,0c1.7,0,2.6,0,3.1,0.1c0.3,3.3,0.2,15.7,0,19.2c-0.6,0-1.5,0-2.8,0
		c-0.3,0-0.5,0-0.6,0l0,3c0.1,0,0.3,0,0.6,0c0.7,0,1.4,0,1.9,0c2,0,2.9-0.2,3.5-0.8c0.4-0.5,0.6-0.7,0.6-11.7
		C27.4,4.6,27.1,4.1,26.8,3.7z"/>
</g>
</svg>
