<?xml version="1.0" encoding="utf-8"?>
<!-- Svg Vector Icons : http://www.onlinewebfonts.com/icon -->
<!DOCTYPE svg PUBLIC "-//W3C//DTD SVG 1.1//EN" "http://www.w3.org/Graphics/SVG/1.1/DTD/svg11.dtd">
<svg version="1.1" xmlns="http://www.w3.org/2000/svg" xmlns:xlink="http://www.w3.org/1999/xlink" x="0px" y="0px" viewBox="0 0 1000 1000" enable-background="new 0 0 1000 1000" xml:space="preserve">
<metadata> Svg Vector Icons : http://www.onlinewebfonts.com/icon </metadata>
<g><path d="M10,142.8c0.7-3.2,1.5-6.4,2.2-9.6c7.5-31,33.9-52.6,65.8-53.7c2.8-0.1,5.5-0.1,8.3-0.1c158.8,0,317.7,0,476.5,0c2.6,0,5.1,0,8.1,0c0,22.6,0,44.9,0,67.7c-164.3,0-328.4,0-492.8,0c0,258.3,0,516,0,774.1c257.9,0,515.7,0,774.3,0c0-163.5,0-327,0-490.7c23.7,0,46.5,0,70.1,0c0,2.2,0,4.2,0,6.2c0,160.3,0,320.6,0,480.9c0,36.7-20.6,63.9-54.5,72c-5.5,1.3-11.3,1.8-17,1.8c-256.5,0.1-512.9,0.1-769.4,0c-36.6,0-64.7-24.1-70.6-60.1c-0.2-1.1-0.7-2.1-1.1-3.1C10,666.5,10,404.7,10,142.8z"/><path stroke="#8dc449" fill="#8dc449" d="M523.8,621.4c-48.6-48.6-97.9-97.9-146.6-146.6C492,360,607.1,244.9,722,130c48.6,48.6,97.8,97.8,146.6,146.6C753.8,391.4,638.7,506.5,523.8,621.4z"/><path stroke="#8dc449" fill="#8dc449" d="M921.7,225.2c-49.4-49.4-98.7-98.7-148.3-148.3c0.8-0.9,1.7-2.2,2.9-3.3c14.2-14.3,28.4-28.6,42.7-42.7C849.2,0.9,891.6,1,921.7,31.1c15.3,15.3,30.6,30.6,45.9,45.9c29.8,30,29.9,72.5,0.2,102.4c-14.3,14.4-28.7,28.8-43.1,43.2C923.7,223.6,922.6,224.5,921.7,225.2z"/><path stroke="#8dc449" fill="#8dc449" d="M322.9,525.7c49.9,49.9,99.9,99.9,149.8,149.8c-11.2,7.9-23.3,15.7-38.1,16.9c-33.8,2.6-64.1,17.8-96.1,26.9c-28.7,8.2-57,18-86.3,27.4c0.6-2.3,0.9-3.9,1.5-5.5c16.6-52,33.3-104,49.7-156.1c1.9-6.2,1.9-13,2.6-19.6c1.4-12.4,5.9-23.6,13.3-33.6C320.7,529.7,321.9,527.4,322.9,525.7z"/></g>
</svg>