<?xml version="1.0" encoding="utf-8"?>
<!-- Generator: Adobe Illustrator 21.0.0, SVG Export Plug-In . SVG Version: 6.00 Build 0)  -->
<svg version="1.1" id="Layer_1" xmlns="http://www.w3.org/2000/svg" xmlns:xlink="http://www.w3.org/1999/xlink" x="0px" y="0px"
	 viewBox="0 0 512 512" style="enable-background:new 0 0 512 512;" xml:space="preserve">
<style type="text/css">
	.st0{fill:#FF3333;}
</style>
<path id="help-2-icon" class="st0" d="M256,50C142.2,50,50,142.2,50,256s92.2,206,206,206s206-92.2,206-206S369.8,50,256,50z
	 M258.2,392.9c-16.2,0-29.3-13.1-29.3-29.3c0-16.2,13.1-29.3,29.3-29.3c16.2,0,29.3,13.1,29.3,29.3
	C287.5,379.8,274.4,392.9,258.2,392.9z M281.3,306.4v5.3c0,0-43.9,0-48.2,0v-5.3c0-14.9,2.2-34,19.5-50.6
	c17.3-16.6,38.9-30.3,38.9-51.1c0-22.9-15.9-35.1-36-35.1c-33.5,0-35.7,34.7-36.5,42.3H172c1.2-36.2,16.5-86.8,83.7-86.8
	c58.2,0,84.3,39,84.3,75.5C340,258.8,281.3,268.9,281.3,306.4z"/>
</svg>
