<?xml version="1.0" encoding="utf-8"?>
<!-- Generator: Adobe Illustrator 21.0.2, SVG Export Plug-In . SVG Version: 6.00 Build 0)  -->
<svg version="1.1" id="Layer_1" xmlns="http://www.w3.org/2000/svg" xmlns:xlink="http://www.w3.org/1999/xlink" x="0px" y="0px"
	 viewBox="0 0 30 30" style="enable-background:new 0 0 30 30;" xml:space="preserve">
<style type="text/css">
	.st0{fill:#666666;}
</style>
<path class="st0" d="M15,25L15,25c-0.6,0-1-0.4-1-1V6c0-0.6,0.4-1,1-1h0c0.6,0,1,0.4,1,1v18C16,24.6,15.6,25,15,25z"/>
<path class="st0" d="M9,22.3L9,22.3c-0.6,0-1-0.4-1-1V8.7c0-0.6,0.4-1,1-1h0c0.6,0,1,0.4,1,1v12.5C10,21.8,9.6,22.3,9,22.3z"/>
<path class="st0" d="M21,22.3L21,22.3c-0.6,0-1-0.4-1-1V8.7c0-0.6,0.4-1,1-1h0c0.6,0,1,0.4,1,1v12.5C22,21.8,21.6,22.3,21,22.3z"/>
</svg>
